# xmcd
#
# Track frame offsets: 
#        150
#        17995
#        36365
#        52875
#        68042
#        83877
#        104092
#        119827
#        136950
#        150380
#
# Disc length: 2218 seconds
#
# Revision: 4
# Processed by: cddbd v1.5.2PL0 Copyright (c) Steve Scherf et al.
# Submitted via: ExactAudioCopyFreeDBPlugin 1.0
#
DISCID=8808a80a
DTITLE=Southern Cookin' - Southern Cookin'
DYEAR=1978
DGENRE=Funk
TTITLE0=Disco Fiend
TTITLE1=You Are My Inspiration
TTITLE2=One Of Those Days
TTITLE3=Meddlers
TTITLE4=The Rainy Day
TTITLE5=Everything Is Disco
TTITLE6=It's Time To Party
TTITLE7=Let Me Be Good To You
TTITLE8=Do Your Thing
TTITLE9=We The People
EXTD=
EXTT0=
EXTT1=
EXTT2=
EXTT3=
EXTT4=
EXTT5=
EXTT6=
EXTT7=
EXTT8=
EXTT9=
PLAYORDER=
